<svg xmlns="http://www.w3.org/2000/svg" viewBox="0 0 128 128">
  <defs>
    <linearGradient id="g" x1="0" x2="1">
      <stop offset="0" stop-color="#b4f1ff"/>
      <stop offset="1" stop-color="#3ca0ff"/>
    </linearGradient>
  </defs>
  <circle cx="64" cy="64" r="60" fill="url(#g)" opacity=".18"/>
  <path d="M17 75c12-6 21-7 30-6 5-6 9-9 15-12 4-6 6-12 8-18 9 9 15 12 25 14-6 4-12 7-17 10 8 2 13 5 19 10-8-1-16 0-23 3-2 4-5 8-9 12-3 3-8 7-13 8-9-1-18-5-25-11 1-4 3-7 5-10-7 1-12 1-15 0z" fill="url(#g)"/>
</svg>
